<svg width="25" height="25" viewBox="0 0 25 25" fill="none" xmlns="http://www.w3.org/2000/svg">
<path d="M22.3499 10.5771C22.478 11.2636 22.5478 11.9813 22.5478 12.7302C22.5478 18.5886 18.627 22.7542 12.7051 22.7542C11.3584 22.7546 10.0248 22.4896 8.78051 21.9745C7.53623 21.4593 6.40566 20.704 5.45339 19.7517C4.50112 18.7995 3.74582 17.6689 3.23064 16.4246C2.71547 15.1803 2.45052 13.8467 2.45093 12.5C2.45052 11.1533 2.71547 9.81971 3.23064 8.57543C3.74582 7.33115 4.50112 6.20058 5.45339 5.24831C6.40566 4.29604 7.53623 3.54074 8.78051 3.02557C10.0248 2.51039 11.3584 2.24544 12.7051 2.24585C15.4738 2.24585 17.7874 3.2646 19.5624 4.91877L16.6718 7.80939V7.8021C15.5957 6.7771 14.2301 6.25106 12.7051 6.25106C9.32176 6.25106 6.57176 9.10939 6.57176 12.4938C6.57176 15.8771 9.32176 18.7417 12.7051 18.7417C15.7749 18.7417 17.8645 16.9865 18.2936 14.5761H12.7051V10.5771H22.3509H22.3499Z" fill="black"/>
</svg>
