<svg width="25" height="25" viewBox="0 0 25 25" fill="none" xmlns="http://www.w3.org/2000/svg">
<g clip-path="url(#clip0_46_673)">
<path fill-rule="evenodd" clip-rule="evenodd" d="M22.2526 15.3725C22.2526 15.3725 24.2739 17.3688 24.7739 18.2925C24.7836 18.3058 24.7912 18.3206 24.7964 18.3363C25.0001 18.6775 25.0501 18.945 24.9501 19.1425C24.7814 19.4688 24.2101 19.6325 24.0164 19.6463H20.4439C20.1951 19.6463 19.6776 19.5813 19.0476 19.1463C18.5664 18.81 18.0876 18.2563 17.6239 17.715C16.9314 16.9113 16.3326 16.2138 15.7264 16.2138C15.6498 16.2136 15.5737 16.2263 15.5014 16.2513C15.0426 16.3963 14.4601 17.05 14.4601 18.7913C14.4601 19.3363 14.0301 19.6463 13.7289 19.6463H12.0926C11.5351 19.6463 8.63261 19.4513 6.05886 16.7375C2.90511 13.415 0.0726126 6.75001 0.0451126 6.69126C-0.131137 6.26001 0.238863 6.02501 0.638863 6.02501H4.24636C4.73011 6.02501 4.88761 6.31751 4.99761 6.58001C5.12511 6.88126 5.59761 8.08626 6.37261 9.44001C7.62761 11.6425 8.39886 12.5388 9.01511 12.5388C9.13089 12.5391 9.24471 12.5089 9.34511 12.4513C10.1501 12.0088 10.0001 9.13376 9.96261 8.54126C9.96261 8.42626 9.96136 7.25751 9.54886 6.69251C9.25386 6.28751 8.75136 6.13001 8.44761 6.07251C8.52886 5.95501 8.70136 5.77501 8.92261 5.66876C9.47386 5.39376 10.4701 5.35376 11.4589 5.35376H12.0076C13.0801 5.36876 13.3576 5.43751 13.7476 5.53626C14.5326 5.72376 14.5476 6.23251 14.4789 7.96501C14.4589 8.46001 14.4376 9.01751 14.4376 9.67376C14.4376 9.81376 14.4314 9.97001 14.4314 10.1288C14.4076 11.0175 14.3764 12.0188 15.0039 12.43C15.0852 12.4807 15.1792 12.5076 15.2751 12.5075C15.4926 12.5075 16.1439 12.5075 17.9101 9.47626C18.6851 8.13751 19.2851 6.55876 19.3264 6.44001C19.3614 6.37376 19.4664 6.18751 19.5939 6.11251C19.6846 6.06425 19.7862 6.04015 19.8889 6.04251H24.1326C24.5951 6.04251 24.9089 6.11251 24.9701 6.28751C25.0726 6.57126 24.9501 7.43751 23.0126 10.0575C22.6864 10.4938 22.4001 10.8713 22.1489 11.2013C20.3926 13.5063 20.3926 13.6225 22.2526 15.3725V15.3725Z" fill="black"/>
</g>
<defs>
<clipPath id="clip0_46_673">
<rect width="25" height="25" fill="white"/>
</clipPath>
</defs>
</svg>
